ISO-10303-21;
HEADER;
FILE_DESCRIPTION((''),'2;1');
FILE_NAME('front wall','2024-01-01T00:00:00',(''),(''),'step-orient fixture generator','','');
FILE_SCHEMA(('AUTOMOTIVE_DESIGN { 1 0 10303 214 3 1 1 1 }'));
ENDSEC;
DATA;
#1=CARTESIAN_POINT('',(0.125614930240368,-0.0462449694662085,0.0681806240241197));
#2=DIRECTION('',(0.561493024036845,-0.124496946620849,0.81806240241197));
#3=DIRECTION('',(0.816829269806096,0.241508801211985,-0.523892587201986));
#4=AXIS2_PLACEMENT_3D('',#1,#2,#3);
#5=PLANE('',#4);
#6=CARTESIAN_POINT('',(0.125614930240368,-0.0462449694662085,0.0681806240241197));
#7=VERTEX_POINT('',#6);
#8=CARTESIAN_POINT('',(0.411505174672502,0.0382831109579864,-0.115181781496575));
#9=VERTEX_POINT('',#8);
#10=CARTESIAN_POINT('',(0.125614930240368,-0.0462449694662085,0.0681806240241197));
#11=DIRECTION('',(0.816829269806096,0.241508801211985,-0.523892587201986));
#12=VECTOR('',#11,1.);
#13=LINE('',#10,#12);
#14=EDGE_CURVE('',#7,#9,#13,.T.);
#15=ORIENTED_EDGE('',*,*,#14,.T.);
#16=CARTESIAN_POINT('',(0.383712463714077,0.240382774012056,-0.0653491475002355));
#17=VERTEX_POINT('',#16);
#18=CARTESIAN_POINT('',(0.411505174672502,0.0382831109579864,-0.115181781496575));
#19=DIRECTION('',(-0.132346242659168,0.96237934787652,0.237298257125428));
#20=VECTOR('',#19,1.);
#21=LINE('',#18,#20);
#22=EDGE_CURVE('',#9,#17,#21,.T.);
#23=ORIENTED_EDGE('',*,*,#22,.T.);
#24=CARTESIAN_POINT('',(0.0978222192819433,0.155854693587861,0.11801325802046));
#25=VERTEX_POINT('',#24);
#26=CARTESIAN_POINT('',(0.383712463714077,0.240382774012056,-0.0653491475002355));
#27=DIRECTION('',(-0.816829269806096,-0.241508801211985,0.523892587201986));
#28=VECTOR('',#27,1.);
#29=LINE('',#26,#28);
#30=EDGE_CURVE('',#17,#25,#29,.T.);
#31=ORIENTED_EDGE('',*,*,#30,.T.);
#32=CARTESIAN_POINT('',(0.0978222192819433,0.155854693587861,0.11801325802046));
#33=DIRECTION('',(0.132346242659167,-0.96237934787652,-0.237298257125428));
#34=VECTOR('',#33,1.);
#35=LINE('',#32,#34);
#36=EDGE_CURVE('',#25,#7,#35,.T.);
#37=ORIENTED_EDGE('',*,*,#36,.T.);
#38=EDGE_LOOP('',(#15,#23,#31,#37));
#39=FACE_OUTER_BOUND('',#38,.T.);
#40=CARTESIAN_POINT('',(0.127861993342427,0.0301335412514362,0.0782619834547723));
#41=VERTEX_POINT('',#40);
#42=CARTESIAN_POINT('',(0.389247359680377,0.107416357639272,-0.0893836444498631));
#43=VERTEX_POINT('',#42);
#44=CARTESIAN_POINT('',(0.127861993342427,0.0301335412514362,0.0782619834547723));
#45=DIRECTION('',(0.816829269806096,0.241508801211985,-0.523892587201986));
#46=VECTOR('',#45,1.);
#47=LINE('',#44,#46);
#48=EDGE_CURVE('',#41,#43,#47,.T.);
#49=ORIENTED_EDGE('',*,*,#48,.T.);
#50=CARTESIAN_POINT('',(0.395944079558931,0.0587199626367196,-0.10139093626041));
#51=VERTEX_POINT('',#50);
#52=CARTESIAN_POINT('',(0.389247359680377,0.107416357639272,-0.0893836444498631));
#53=DIRECTION('',(0.132346242659168,-0.962379347876519,-0.237298257125428));
#54=VECTOR('',#53,1.);
#55=LINE('',#52,#54);
#56=EDGE_CURVE('',#43,#51,#55,.T.);
#57=ORIENTED_EDGE('',*,*,#56,.T.);
#58=CARTESIAN_POINT('',(0.134558713220981,-0.0185628537511157,0.0662546916442256));
#59=VERTEX_POINT('',#58);
#60=CARTESIAN_POINT('',(0.395944079558931,0.0587199626367196,-0.10139093626041));
#61=DIRECTION('',(-0.816829269806096,-0.241508801211985,0.523892587201986));
#62=VECTOR('',#61,1.);
#63=LINE('',#60,#62);
#64=EDGE_CURVE('',#51,#59,#63,.T.);
#65=ORIENTED_EDGE('',*,*,#64,.T.);
#66=CARTESIAN_POINT('',(0.134558713220981,-0.0185628537511157,0.0662546916442256));
#67=DIRECTION('',(-0.132346242659167,0.96237934787652,0.237298257125428));
#68=VECTOR('',#67,1.);
#69=LINE('',#66,#68);
#70=EDGE_CURVE('',#59,#41,#69,.T.);
#71=ORIENTED_EDGE('',*,*,#70,.T.);
#72=EDGE_LOOP('',(#49,#57,#65,#71));
#73=FACE_BOUND('',#72,.T.);
#74=CARTESIAN_POINT('',(0.116612562716398,0.11193578582094,0.0984323353104336));
#75=VERTEX_POINT('',#74);
#76=CARTESIAN_POINT('',(0.377997929054348,0.189218602208776,-0.0692132925942018));
#77=VERTEX_POINT('',#76);
#78=CARTESIAN_POINT('',(0.116612562716398,0.11193578582094,0.0984323353104336));
#79=DIRECTION('',(0.816829269806096,0.241508801211985,-0.523892587201986));
#80=VECTOR('',#79,1.);
#81=LINE('',#78,#80);
#82=EDGE_CURVE('',#75,#77,#81,.T.);
#83=ORIENTED_EDGE('',*,*,#82,.T.);
#84=CARTESIAN_POINT('',(0.384694648932902,0.140522207206224,-0.0812205844047484));
#85=VERTEX_POINT('',#84);
#86=CARTESIAN_POINT('',(0.377997929054348,0.189218602208776,-0.0692132925942018));
#87=DIRECTION('',(0.132346242659167,-0.96237934787652,-0.237298257125428));
#88=VECTOR('',#87,1.);
#89=LINE('',#86,#88);
#90=EDGE_CURVE('',#77,#85,#89,.T.);
#91=ORIENTED_EDGE('',*,*,#90,.T.);
#92=CARTESIAN_POINT('',(0.123309282594951,0.0632393908183885,0.086425043499887));
#93=VERTEX_POINT('',#92);
#94=CARTESIAN_POINT('',(0.384694648932902,0.140522207206224,-0.0812205844047484));
#95=DIRECTION('',(-0.816829269806096,-0.241508801211985,0.523892587201986));
#96=VECTOR('',#95,1.);
#97=LINE('',#94,#96);
#98=EDGE_CURVE('',#85,#93,#97,.T.);
#99=ORIENTED_EDGE('',*,*,#98,.T.);
#100=CARTESIAN_POINT('',(0.123309282594951,0.0632393908183885,0.086425043499887));
#101=DIRECTION('',(-0.132346242659167,0.96237934787652,0.237298257125428));
#102=VECTOR('',#101,1.);
#103=LINE('',#100,#102);
#104=EDGE_CURVE('',#93,#75,#103,.T.);
#105=ORIENTED_EDGE('',*,*,#104,.T.);
#106=EDGE_LOOP('',(#83,#91,#99,#105));
#107=FACE_BOUND('',#106,.T.);
#108=ADVANCED_FACE('',(#39,#73,#107),#5,.T.);
#109=CARTESIAN_POINT('',(0.0922072890415748,0.157099663054069,0.10983263399634));
#110=DIRECTION('',(-0.561493024036845,0.124496946620849,-0.81806240241197));
#111=DIRECTION('',(0.816829269806096,0.241508801211985,-0.523892587201986));
#112=AXIS2_PLACEMENT_3D('',#109,#110,#111);
#113=PLANE('',#112);
#114=CARTESIAN_POINT('',(0.0922072890415748,0.157099663054069,0.10983263399634));
#115=VERTEX_POINT('',#114);
#116=CARTESIAN_POINT('',(0.378097533473708,0.241627743478264,-0.0735297715243552));
#117=VERTEX_POINT('',#116);
#118=CARTESIAN_POINT('',(0.0922072890415748,0.157099663054069,0.10983263399634));
#119=DIRECTION('',(0.816829269806096,0.241508801211985,-0.523892587201986));
#120=VECTOR('',#119,1.);
#121=LINE('',#118,#120);
#122=EDGE_CURVE('',#115,#117,#121,.T.);
#123=ORIENTED_EDGE('',*,*,#122,.T.);
#124=CARTESIAN_POINT('',(0.405890244432134,0.0395280804241949,-0.123362405520695));
#125=VERTEX_POINT('',#124);
#126=CARTESIAN_POINT('',(0.378097533473708,0.241627743478264,-0.0735297715243552));
#127=DIRECTION('',(0.132346242659167,-0.96237934787652,-0.237298257125428));
#128=VECTOR('',#127,1.);
#129=LINE('',#126,#128);
#130=EDGE_CURVE('',#117,#125,#129,.T.);
#131=ORIENTED_EDGE('',*,*,#130,.T.);
#132=CARTESIAN_POINT('',(0.12,-0.045,0.06));
#133=VERTEX_POINT('',#132);
#134=CARTESIAN_POINT('',(0.405890244432134,0.0395280804241949,-0.123362405520695));
#135=DIRECTION('',(-0.816829269806096,-0.241508801211985,0.523892587201986));
#136=VECTOR('',#135,1.);
#137=LINE('',#134,#136);
#138=EDGE_CURVE('',#125,#133,#137,.T.);
#139=ORIENTED_EDGE('',*,*,#138,.T.);
#140=CARTESIAN_POINT('',(0.12,-0.045,0.06));
#141=DIRECTION('',(-0.132346242659167,0.96237934787652,0.237298257125428));
#142=VECTOR('',#141,1.);
#143=LINE('',#140,#142);
#144=EDGE_CURVE('',#133,#115,#143,.T.);
#145=ORIENTED_EDGE('',*,*,#144,.T.);
#146=EDGE_LOOP('',(#123,#131,#139,#145));
#147=FACE_OUTER_BOUND('',#146,.T.);
#148=CARTESIAN_POINT('',(0.128943782980612,-0.0173178842849072,0.0580740676201059));
#149=VERTEX_POINT('',#148);
#150=CARTESIAN_POINT('',(0.390329149318563,0.0599649321029281,-0.10957156028453));
#151=VERTEX_POINT('',#150);
#152=CARTESIAN_POINT('',(0.128943782980612,-0.0173178842849072,0.0580740676201059));
#153=DIRECTION('',(0.816829269806096,0.241508801211985,-0.523892587201986));
#154=VECTOR('',#153,1.);
#155=LINE('',#152,#154);
#156=EDGE_CURVE('',#149,#151,#155,.T.);
#157=ORIENTED_EDGE('',*,*,#156,.T.);
#158=CARTESIAN_POINT('',(0.383632429440009,0.10866132710548,-0.0975642684739828));
#159=VERTEX_POINT('',#158);
#160=CARTESIAN_POINT('',(0.390329149318563,0.0599649321029281,-0.10957156028453));
#161=DIRECTION('',(-0.132346242659167,0.96237934787652,0.237298257125428));
#162=VECTOR('',#161,1.);
#163=LINE('',#160,#162);
#164=EDGE_CURVE('',#151,#159,#163,.T.);
#165=ORIENTED_EDGE('',*,*,#164,.T.);
#166=CARTESIAN_POINT('',(0.122247063102058,0.0313785107176447,0.0700813594306526));
#167=VERTEX_POINT('',#166);
#168=CARTESIAN_POINT('',(0.383632429440009,0.10866132710548,-0.0975642684739828));
#169=DIRECTION('',(-0.816829269806096,-0.241508801211985,0.523892587201986));
#170=VECTOR('',#169,1.);
#171=LINE('',#168,#170);
#172=EDGE_CURVE('',#159,#167,#171,.T.);
#173=ORIENTED_EDGE('',*,*,#172,.T.);
#174=CARTESIAN_POINT('',(0.122247063102058,0.0313785107176447,0.0700813594306526));
#175=DIRECTION('',(0.132346242659167,-0.96237934787652,-0.237298257125428));
#176=VECTOR('',#175,1.);
#177=LINE('',#174,#176);
#178=EDGE_CURVE('',#167,#149,#177,.T.);
#179=ORIENTED_EDGE('',*,*,#178,.T.);
#180=EDGE_LOOP('',(#157,#165,#173,#179));
#181=FACE_BOUND('',#180,.T.);
#182=CARTESIAN_POINT('',(0.117694352354583,0.0644843602845969,0.0782444194757673));
#183=VERTEX_POINT('',#182);
#184=CARTESIAN_POINT('',(0.379079718692534,0.141767176672432,-0.0894012084288681));
#185=VERTEX_POINT('',#184);
#186=CARTESIAN_POINT('',(0.117694352354583,0.0644843602845969,0.0782444194757673));
#187=DIRECTION('',(0.816829269806096,0.241508801211985,-0.523892587201986));
#188=VECTOR('',#187,1.);
#189=LINE('',#186,#188);
#190=EDGE_CURVE('',#183,#185,#189,.T.);
#191=ORIENTED_EDGE('',*,*,#190,.T.);
#192=CARTESIAN_POINT('',(0.37238299881398,0.190463571674984,-0.0773939166183215));
#193=VERTEX_POINT('',#192);
#194=CARTESIAN_POINT('',(0.379079718692534,0.141767176672432,-0.0894012084288681));
#195=DIRECTION('',(-0.132346242659167,0.96237934787652,0.237298257125427));
#196=VECTOR('',#195,1.);
#197=LINE('',#194,#196);
#198=EDGE_CURVE('',#185,#193,#197,.T.);
#199=ORIENTED_EDGE('',*,*,#198,.T.);
#200=CARTESIAN_POINT('',(0.110997632476029,0.113180755287149,0.0902517112863139));
#201=VERTEX_POINT('',#200);
#202=CARTESIAN_POINT('',(0.37238299881398,0.190463571674984,-0.0773939166183215));
#203=DIRECTION('',(-0.816829269806096,-0.241508801211985,0.523892587201986));
#204=VECTOR('',#203,1.);
#205=LINE('',#202,#204);
#206=EDGE_CURVE('',#193,#201,#205,.T.);
#207=ORIENTED_EDGE('',*,*,#206,.T.);
#208=CARTESIAN_POINT('',(0.110997632476029,0.113180755287149,0.0902517112863139));
#209=DIRECTION('',(0.132346242659167,-0.96237934787652,-0.237298257125428));
#210=VECTOR('',#209,1.);
#211=LINE('',#208,#210);
#212=EDGE_CURVE('',#201,#183,#211,.T.);
#213=ORIENTED_EDGE('',*,*,#212,.T.);
#214=EDGE_LOOP('',(#191,#199,#207,#213));
#215=FACE_BOUND('',#214,.T.);
#216=ADVANCED_FACE('',(#147,#181,#215),#113,.T.);
#217=CARTESIAN_POINT('',(0.12,-0.045,0.06));
#218=DIRECTION('',(0.132346242659168,-0.962379347876519,-0.237298257125429));
#219=DIRECTION('',(0.816829269806096,0.241508801211987,-0.523892587201985));
#220=AXIS2_PLACEMENT_3D('',#217,#218,#219);
#221=PLANE('',#220);
#222=ORIENTED_EDGE('',*,*,#138,.F.);
#223=CARTESIAN_POINT('',(0.405890244432134,0.0395280804241949,-0.123362405520695));
#224=DIRECTION('',(0.561493024036846,-0.124496946620849,0.81806240241197));
#225=VECTOR('',#224,1.);
#226=LINE('',#223,#225);
#227=EDGE_CURVE('',#125,#9,#226,.T.);
#228=ORIENTED_EDGE('',*,*,#227,.T.);
#229=ORIENTED_EDGE('',*,*,#14,.F.);
#230=CARTESIAN_POINT('',(0.125614930240368,-0.0462449694662085,0.0681806240241197));
#231=DIRECTION('',(-0.561493024036845,0.12449694662085,-0.81806240241197));
#232=VECTOR('',#231,1.);
#233=LINE('',#230,#232);
#234=EDGE_CURVE('',#7,#133,#233,.T.);
#235=ORIENTED_EDGE('',*,*,#234,.T.);
#236=EDGE_LOOP('',(#222,#228,#229,#235));
#237=FACE_OUTER_BOUND('',#236,.T.);
#238=ADVANCED_FACE('',(#237),#221,.T.);
#239=CARTESIAN_POINT('',(0.405890244432134,0.0395280804241949,-0.123362405520695));
#240=DIRECTION('',(0.816829269806096,0.241508801211985,-0.523892587201985));
#241=DIRECTION('',(-0.132346242659167,0.96237934787652,0.237298257125428));
#242=AXIS2_PLACEMENT_3D('',#239,#240,#241);
#243=PLANE('',#242);
#244=ORIENTED_EDGE('',*,*,#130,.F.);
#245=CARTESIAN_POINT('',(0.378097533473708,0.241627743478264,-0.0735297715243552));
#246=DIRECTION('',(0.561493024036842,-0.124496946620848,0.818062402411972));
#247=VECTOR('',#246,1.);
#248=LINE('',#245,#247);
#249=EDGE_CURVE('',#117,#17,#248,.T.);
#250=ORIENTED_EDGE('',*,*,#249,.T.);
#251=ORIENTED_EDGE('',*,*,#22,.F.);
#252=ORIENTED_EDGE('',*,*,#227,.F.);
#253=EDGE_LOOP('',(#244,#250,#251,#252));
#254=FACE_OUTER_BOUND('',#253,.T.);
#255=ADVANCED_FACE('',(#254),#243,.T.);
#256=CARTESIAN_POINT('',(0.378097533473708,0.241627743478264,-0.0735297715243552));
#257=DIRECTION('',(-0.132346242659169,0.962379347876519,0.237298257125427));
#258=DIRECTION('',(-0.816829269806096,-0.241508801211986,0.523892587201985));
#259=AXIS2_PLACEMENT_3D('',#256,#257,#258);
#260=PLANE('',#259);
#261=ORIENTED_EDGE('',*,*,#122,.F.);
#262=CARTESIAN_POINT('',(0.0922072890415748,0.157099663054069,0.10983263399634));
#263=DIRECTION('',(0.561493024036845,-0.124496946620847,0.81806240241197));
#264=VECTOR('',#263,1.);
#265=LINE('',#262,#264);
#266=EDGE_CURVE('',#115,#25,#265,.T.);
#267=ORIENTED_EDGE('',*,*,#266,.T.);
#268=ORIENTED_EDGE('',*,*,#30,.F.);
#269=ORIENTED_EDGE('',*,*,#249,.F.);
#270=EDGE_LOOP('',(#261,#267,#268,#269));
#271=FACE_OUTER_BOUND('',#270,.T.);
#272=ADVANCED_FACE('',(#271),#260,.T.);
#273=CARTESIAN_POINT('',(0.0922072890415748,0.157099663054069,0.10983263399634));
#274=DIRECTION('',(-0.816829269806096,-0.241508801211985,0.523892587201985));
#275=DIRECTION('',(0.132346242659168,-0.962379347876519,-0.237298257125428));
#276=AXIS2_PLACEMENT_3D('',#273,#274,#275);
#277=PLANE('',#276);
#278=ORIENTED_EDGE('',*,*,#144,.F.);
#279=ORIENTED_EDGE('',*,*,#234,.F.);
#280=ORIENTED_EDGE('',*,*,#36,.F.);
#281=ORIENTED_EDGE('',*,*,#266,.F.);
#282=EDGE_LOOP('',(#278,#279,#280,#281));
#283=FACE_OUTER_BOUND('',#282,.T.);
#284=ADVANCED_FACE('',(#283),#277,.T.);
#285=CARTESIAN_POINT('',(0.122247063102058,0.0313785107176447,0.0700813594306526));
#286=DIRECTION('',(0.132346242659168,-0.962379347876519,-0.237298257125429));
#287=DIRECTION('',(0.816829269806096,0.241508801211986,-0.523892587201986));
#288=AXIS2_PLACEMENT_3D('',#285,#286,#287);
#289=PLANE('',#288);
#290=ORIENTED_EDGE('',*,*,#172,.F.);
#291=CARTESIAN_POINT('',(0.383632429440009,0.10866132710548,-0.0975642684739828));
#292=DIRECTION('',(0.561493024036842,-0.124496946620849,0.818062402411972));
#293=VECTOR('',#292,1.);
#294=LINE('',#291,#293);
#295=EDGE_CURVE('',#159,#43,#294,.T.);
#296=ORIENTED_EDGE('',*,*,#295,.T.);
#297=ORIENTED_EDGE('',*,*,#48,.F.);
#298=CARTESIAN_POINT('',(0.127861993342427,0.0301335412514362,0.0782619834547723));
#299=DIRECTION('',(-0.561493024036846,0.124496946620849,-0.81806240241197));
#300=VECTOR('',#299,1.);
#301=LINE('',#298,#300);
#302=EDGE_CURVE('',#41,#167,#301,.T.);
#303=ORIENTED_EDGE('',*,*,#302,.T.);
#304=EDGE_LOOP('',(#290,#296,#297,#303));
#305=FACE_OUTER_BOUND('',#304,.T.);
#306=ADVANCED_FACE('',(#305),#289,.T.);
#307=CARTESIAN_POINT('',(0.383632429440009,0.10866132710548,-0.0975642684739828));
#308=DIRECTION('',(-0.816829269806096,-0.241508801211985,0.523892587201985));
#309=DIRECTION('',(0.132346242659167,-0.96237934787652,-0.237298257125428));
#310=AXIS2_PLACEMENT_3D('',#307,#308,#309);
#311=PLANE('',#310);
#312=ORIENTED_EDGE('',*,*,#164,.F.);
#313=CARTESIAN_POINT('',(0.390329149318563,0.0599649321029281,-0.10957156028453));
#314=DIRECTION('',(0.561493024036846,-0.124496946620849,0.81806240241197));
#315=VECTOR('',#314,1.);
#316=LINE('',#313,#315);
#317=EDGE_CURVE('',#151,#51,#316,.T.);
#318=ORIENTED_EDGE('',*,*,#317,.T.);
#319=ORIENTED_EDGE('',*,*,#56,.F.);
#320=ORIENTED_EDGE('',*,*,#295,.F.);
#321=EDGE_LOOP('',(#312,#318,#319,#320));
#322=FACE_OUTER_BOUND('',#321,.T.);
#323=ADVANCED_FACE('',(#322),#311,.T.);
#324=CARTESIAN_POINT('',(0.390329149318563,0.0599649321029281,-0.10957156028453));
#325=DIRECTION('',(-0.132346242659167,0.96237934787652,0.237298257125427));
#326=DIRECTION('',(-0.816829269806096,-0.241508801211985,0.523892587201986));
#327=AXIS2_PLACEMENT_3D('',#324,#325,#326);
#328=PLANE('',#327);
#329=ORIENTED_EDGE('',*,*,#156,.F.);
#330=CARTESIAN_POINT('',(0.128943782980612,-0.0173178842849072,0.0580740676201059));
#331=DIRECTION('',(0.561493024036846,-0.124496946620849,0.81806240241197));
#332=VECTOR('',#331,1.);
#333=LINE('',#330,#332);
#334=EDGE_CURVE('',#149,#59,#333,.T.);
#335=ORIENTED_EDGE('',*,*,#334,.T.);
#336=ORIENTED_EDGE('',*,*,#64,.F.);
#337=ORIENTED_EDGE('',*,*,#317,.F.);
#338=EDGE_LOOP('',(#329,#335,#336,#337));
#339=FACE_OUTER_BOUND('',#338,.T.);
#340=ADVANCED_FACE('',(#339),#328,.T.);
#341=CARTESIAN_POINT('',(0.128943782980612,-0.0173178842849072,0.0580740676201059));
#342=DIRECTION('',(0.816829269806095,0.241508801211985,-0.523892587201987));
#343=DIRECTION('',(-0.132346242659167,0.96237934787652,0.237298257125428));
#344=AXIS2_PLACEMENT_3D('',#341,#342,#343);
#345=PLANE('',#344);
#346=ORIENTED_EDGE('',*,*,#178,.F.);
#347=ORIENTED_EDGE('',*,*,#302,.F.);
#348=ORIENTED_EDGE('',*,*,#70,.F.);
#349=ORIENTED_EDGE('',*,*,#334,.F.);
#350=EDGE_LOOP('',(#346,#347,#348,#349));
#351=FACE_OUTER_BOUND('',#350,.T.);
#352=ADVANCED_FACE('',(#351),#345,.T.);
#353=CARTESIAN_POINT('',(0.110997632476029,0.113180755287149,0.0902517112863139));
#354=DIRECTION('',(0.132346242659167,-0.962379347876519,-0.237298257125428));
#355=DIRECTION('',(0.816829269806096,0.241508801211986,-0.523892587201986));
#356=AXIS2_PLACEMENT_3D('',#353,#354,#355);
#357=PLANE('',#356);
#358=ORIENTED_EDGE('',*,*,#206,.F.);
#359=CARTESIAN_POINT('',(0.37238299881398,0.190463571674984,-0.0773939166183215));
#360=DIRECTION('',(0.561493024036842,-0.12449694662085,0.818062402411972));
#361=VECTOR('',#360,1.);
#362=LINE('',#359,#361);
#363=EDGE_CURVE('',#193,#77,#362,.T.);
#364=ORIENTED_EDGE('',*,*,#363,.T.);
#365=ORIENTED_EDGE('',*,*,#82,.F.);
#366=CARTESIAN_POINT('',(0.116612562716398,0.11193578582094,0.0984323353104336));
#367=DIRECTION('',(-0.561493024036845,0.124496946620849,-0.81806240241197));
#368=VECTOR('',#367,1.);
#369=LINE('',#366,#368);
#370=EDGE_CURVE('',#75,#201,#369,.T.);
#371=ORIENTED_EDGE('',*,*,#370,.T.);
#372=EDGE_LOOP('',(#358,#364,#365,#371));
#373=FACE_OUTER_BOUND('',#372,.T.);
#374=ADVANCED_FACE('',(#373),#357,.T.);
#375=CARTESIAN_POINT('',(0.37238299881398,0.190463571674984,-0.0773939166183215));
#376=DIRECTION('',(-0.816829269806098,-0.241508801211984,0.523892587201984));
#377=DIRECTION('',(0.132346242659167,-0.96237934787652,-0.237298257125427));
#378=AXIS2_PLACEMENT_3D('',#375,#376,#377);
#379=PLANE('',#378);
#380=ORIENTED_EDGE('',*,*,#198,.F.);
#381=CARTESIAN_POINT('',(0.379079718692534,0.141767176672432,-0.0894012084288681));
#382=DIRECTION('',(0.561493024036842,-0.124496946620848,0.818062402411972));
#383=VECTOR('',#382,1.);
#384=LINE('',#381,#383);
#385=EDGE_CURVE('',#185,#85,#384,.T.);
#386=ORIENTED_EDGE('',*,*,#385,.T.);
#387=ORIENTED_EDGE('',*,*,#90,.F.);
#388=ORIENTED_EDGE('',*,*,#363,.F.);
#389=EDGE_LOOP('',(#380,#386,#387,#388));
#390=FACE_OUTER_BOUND('',#389,.T.);
#391=ADVANCED_FACE('',(#390),#379,.T.);
#392=CARTESIAN_POINT('',(0.379079718692534,0.141767176672432,-0.0894012084288681));
#393=DIRECTION('',(-0.132346242659168,0.96237934787652,0.237298257125427));
#394=DIRECTION('',(-0.816829269806096,-0.241508801211985,0.523892587201986));
#395=AXIS2_PLACEMENT_3D('',#392,#393,#394);
#396=PLANE('',#395);
#397=ORIENTED_EDGE('',*,*,#190,.F.);
#398=CARTESIAN_POINT('',(0.117694352354583,0.0644843602845969,0.0782444194757673));
#399=DIRECTION('',(0.561493024036844,-0.124496946620849,0.818062402411971));
#400=VECTOR('',#399,1.);
#401=LINE('',#398,#400);
#402=EDGE_CURVE('',#183,#93,#401,.T.);
#403=ORIENTED_EDGE('',*,*,#402,.T.);
#404=ORIENTED_EDGE('',*,*,#98,.F.);
#405=ORIENTED_EDGE('',*,*,#385,.F.);
#406=EDGE_LOOP('',(#397,#403,#404,#405));
#407=FACE_OUTER_BOUND('',#406,.T.);
#408=ADVANCED_FACE('',(#407),#396,.T.);
#409=CARTESIAN_POINT('',(0.117694352354583,0.0644843602845969,0.0782444194757673));
#410=DIRECTION('',(0.816829269806096,0.241508801211985,-0.523892587201985));
#411=DIRECTION('',(-0.132346242659167,0.96237934787652,0.237298257125428));
#412=AXIS2_PLACEMENT_3D('',#409,#410,#411);
#413=PLANE('',#412);
#414=ORIENTED_EDGE('',*,*,#212,.F.);
#415=ORIENTED_EDGE('',*,*,#370,.F.);
#416=ORIENTED_EDGE('',*,*,#104,.F.);
#417=ORIENTED_EDGE('',*,*,#402,.F.);
#418=EDGE_LOOP('',(#414,#415,#416,#417));
#419=FACE_OUTER_BOUND('',#418,.T.);
#420=ADVANCED_FACE('',(#419),#413,.T.);
#421=CLOSED_SHELL('',(#108,#216,#238,#255,#272,#284,#306,#323,#340,#352,#374,#391,#408,#420));
#422=MANIFOLD_SOLID_BREP('front wall',#421);
#423=( LENGTH_UNIT() NAMED_UNIT(*) SI_UNIT($,.METRE.) );
#424=( NAMED_UNIT(*) PLANE_ANGLE_UNIT() SI_UNIT($,.RADIAN.) );
#425=( NAMED_UNIT(*) SI_UNIT($,.STERADIAN.) SOLID_ANGLE_UNIT() );
#426=UNCERTAINTY_MEASURE_WITH_UNIT(LENGTH_MEASURE(1.000000000000E-8),#423,'distance_accuracy_value','confusion accuracy');
#427=( GEOMETRIC_REPRESENTATION_CONTEXT(3) GLOBAL_UNCERTAINTY_ASSIGNED_CONTEXT((#426)) GLOBAL_UNIT_ASSIGNED_CONTEXT((#423,#424,#425)) REPRESENTATION_CONTEXT('front wall','3D') );
#428=APPLICATION_CONTEXT('core data for automotive mechanical design processes');
#429=APPLICATION_PROTOCOL_DEFINITION('international standard','automotive_design',2010,#428);
#430=PRODUCT_CONTEXT('',#428,'mechanical');
#431=PRODUCT('front wall','front wall','',(#430));
#432=PRODUCT_RELATED_PRODUCT_CATEGORY('part','',(#431));
#433=PRODUCT_DEFINITION_FORMATION('','',#431);
#434=PRODUCT_DEFINITION_CONTEXT('part definition',#428,'design');
#435=PRODUCT_DEFINITION('design','',#433,#434);
#436=PRODUCT_DEFINITION_SHAPE('','',#435);
#437=CARTESIAN_POINT('',(0.,0.,0.));
#438=DIRECTION('',(0.,0.,1.));
#439=DIRECTION('',(1.,0.,0.));
#440=AXIS2_PLACEMENT_3D('',#437,#438,#439);
#441=ADVANCED_BREP_SHAPE_REPRESENTATION('front wall',(#440,#422),#427);
#442=SHAPE_DEFINITION_REPRESENTATION(#436,#441);
ENDSEC;
END-ISO-10303-21;
