ISO-10303-21;
HEADER;
FILE_DESCRIPTION((''),'2;1');
FILE_NAME('left wall','2024-01-01T00:00:00',(''),(''),'step-orient fixture generator','','');
FILE_SCHEMA(('AUTOMOTIVE_DESIGN { 1 0 10303 214 3 1 1 1 }'));
ENDSEC;
DATA;
#1=CARTESIAN_POINT('',(-0.0232233047033631,-0.161776695296637,-0.03));
#2=DIRECTION('',(0.707106781186547,-0.707106781186548,-1.047538330904E-15));
#3=DIRECTION('',(0.5,0.5,-0.707106781186548));
#4=AXIS2_PLACEMENT_3D('',#1,#2,#3);
#5=PLANE('',#4);
#6=CARTESIAN_POINT('',(-0.0232233047033631,-0.161776695296637,-0.03));
#7=VERTEX_POINT('',#6);
#8=CARTESIAN_POINT('',(0.0817766952966368,-0.0567766952966369,-0.178492424049175));
#9=VERTEX_POINT('',#8);
#10=CARTESIAN_POINT('',(-0.0232233047033631,-0.161776695296637,-0.03));
#11=DIRECTION('',(0.5,0.5,-0.707106781186548));
#12=VECTOR('',#11,1.);
#13=LINE('',#10,#12);
#14=EDGE_CURVE('',#7,#9,#13,.T.);
#15=ORIENTED_EDGE('',*,*,#14,.T.);
#16=CARTESIAN_POINT('',(0.0837766952966368,-0.0547766952966369,-0.175663996924429));
#17=VERTEX_POINT('',#16);
#18=CARTESIAN_POINT('',(0.0817766952966368,-0.0567766952966369,-0.178492424049175));
#19=DIRECTION('',(0.500000000000001,0.500000000000001,0.707106781186546));
#20=VECTOR('',#19,1.);
#21=LINE('',#18,#20);
#22=EDGE_CURVE('',#9,#17,#21,.T.);
#23=ORIENTED_EDGE('',*,*,#22,.T.);
#24=CARTESIAN_POINT('',(0.0812766952966368,-0.0572766952966369,-0.172128463018496));
#25=VERTEX_POINT('',#24);
#26=CARTESIAN_POINT('',(0.0837766952966368,-0.0547766952966369,-0.175663996924429));
#27=DIRECTION('',(-0.500000000000001,-0.500000000000001,0.707106781186546));
#28=VECTOR('',#27,1.);
#29=LINE('',#26,#28);
#30=EDGE_CURVE('',#17,#25,#29,.T.);
#31=ORIENTED_EDGE('',*,*,#30,.T.);
#32=CARTESIAN_POINT('',(0.0842766952966368,-0.0542766952966369,-0.167885822331377));
#33=VERTEX_POINT('',#32);
#34=CARTESIAN_POINT('',(0.0812766952966368,-0.0572766952966369,-0.172128463018496));
#35=DIRECTION('',(0.5,0.5,0.707106781186548));
#36=VECTOR('',#35,1.);
#37=LINE('',#34,#36);
#38=EDGE_CURVE('',#25,#33,#37,.T.);
#39=ORIENTED_EDGE('',*,*,#38,.T.);
#40=CARTESIAN_POINT('',(-0.0182233047033631,-0.156776695296637,-0.0229289321881345));
#41=VERTEX_POINT('',#40);
#42=CARTESIAN_POINT('',(0.0842766952966368,-0.0542766952966369,-0.167885822331377));
#43=DIRECTION('',(-0.5,-0.5,0.707106781186547));
#44=VECTOR('',#43,1.);
#45=LINE('',#42,#44);
#46=EDGE_CURVE('',#33,#41,#45,.T.);
#47=ORIENTED_EDGE('',*,*,#46,.T.);
#48=CARTESIAN_POINT('',(-0.0182233047033631,-0.156776695296637,-0.0229289321881345));
#49=DIRECTION('',(-0.500000000000001,-0.499999999999998,-0.707106781186548));
#50=VECTOR('',#49,1.);
#51=LINE('',#48,#50);
#52=EDGE_CURVE('',#41,#7,#51,.T.);
#53=ORIENTED_EDGE('',*,*,#52,.T.);
#54=EDGE_LOOP('',(#15,#23,#31,#39,#47,#53));
#55=FACE_OUTER_BOUND('',#54,.T.);
#56=ADVANCED_FACE('',(#55),#5,.T.);
#57=CARTESIAN_POINT('',(-0.195,0.02,-0.0229289321881345));
#58=DIRECTION('',(-0.707106781186548,0.707106781186547,3.339028429756E-16));
#59=DIRECTION('',(0.499999999999999,0.500000000000001,-0.707106781186548));
#60=AXIS2_PLACEMENT_3D('',#57,#58,#59);
#61=PLANE('',#60);
#62=CARTESIAN_POINT('',(-0.195,0.02,-0.0229289321881345));
#63=VERTEX_POINT('',#62);
#64=CARTESIAN_POINT('',(-0.0925,0.1225,-0.167885822331377));
#65=VERTEX_POINT('',#64);
#66=CARTESIAN_POINT('',(-0.195,0.02,-0.0229289321881345));
#67=DIRECTION('',(0.5,0.5,-0.707106781186548));
#68=VECTOR('',#67,1.);
#69=LINE('',#66,#68);
#70=EDGE_CURVE('',#63,#65,#69,.T.);
#71=ORIENTED_EDGE('',*,*,#70,.T.);
#72=CARTESIAN_POINT('',(-0.0955,0.1195,-0.172128463018496));
#73=VERTEX_POINT('',#72);
#74=CARTESIAN_POINT('',(-0.0925,0.1225,-0.167885822331377));
#75=DIRECTION('',(-0.5,-0.5,-0.707106781186548));
#76=VECTOR('',#75,1.);
#77=LINE('',#74,#76);
#78=EDGE_CURVE('',#65,#73,#77,.T.);
#79=ORIENTED_EDGE('',*,*,#78,.T.);
#80=CARTESIAN_POINT('',(-0.093,0.122,-0.175663996924429));
#81=VERTEX_POINT('',#80);
#82=CARTESIAN_POINT('',(-0.0955,0.1195,-0.172128463018496));
#83=DIRECTION('',(0.500000000000001,0.500000000000001,-0.707106781186546));
#84=VECTOR('',#83,1.);
#85=LINE('',#82,#84);
#86=EDGE_CURVE('',#73,#81,#85,.T.);
#87=ORIENTED_EDGE('',*,*,#86,.T.);
#88=CARTESIAN_POINT('',(-0.095,0.12,-0.178492424049175));
#89=VERTEX_POINT('',#88);
#90=CARTESIAN_POINT('',(-0.093,0.122,-0.175663996924429));
#91=DIRECTION('',(-0.500000000000001,-0.500000000000001,-0.707106781186546));
#92=VECTOR('',#91,1.);
#93=LINE('',#90,#92);
#94=EDGE_CURVE('',#81,#89,#93,.T.);
#95=ORIENTED_EDGE('',*,*,#94,.T.);
#96=CARTESIAN_POINT('',(-0.2,0.015,-0.03));
#97=VERTEX_POINT('',#96);
#98=CARTESIAN_POINT('',(-0.095,0.12,-0.178492424049175));
#99=DIRECTION('',(-0.5,-0.5,0.707106781186548));
#100=VECTOR('',#99,1.);
#101=LINE('',#98,#100);
#102=EDGE_CURVE('',#89,#97,#101,.T.);
#103=ORIENTED_EDGE('',*,*,#102,.T.);
#104=CARTESIAN_POINT('',(-0.2,0.015,-0.03));
#105=DIRECTION('',(0.5,0.5,0.707106781186547));
#106=VECTOR('',#105,1.);
#107=LINE('',#104,#106);
#108=EDGE_CURVE('',#97,#63,#107,.T.);
#109=ORIENTED_EDGE('',*,*,#108,.T.);
#110=EDGE_LOOP('',(#71,#79,#87,#95,#103,#109));
#111=FACE_OUTER_BOUND('',#110,.T.);
#112=ADVANCED_FACE('',(#111),#61,.T.);
#113=CARTESIAN_POINT('',(-0.2,0.015,-0.03));
#114=DIRECTION('',(-0.5,-0.5,-0.707106781186547));
#115=DIRECTION('',(0.5,0.5,-0.707106781186548));
#116=AXIS2_PLACEMENT_3D('',#113,#114,#115);
#117=PLANE('',#116);
#118=ORIENTED_EDGE('',*,*,#102,.F.);
#119=CARTESIAN_POINT('',(-0.095,0.12,-0.178492424049175));
#120=DIRECTION('',(0.707106781186547,-0.707106781186547,1.110223024625E-16));
#121=VECTOR('',#120,1.);
#122=LINE('',#119,#121);
#123=EDGE_CURVE('',#89,#9,#122,.T.);
#124=ORIENTED_EDGE('',*,*,#123,.T.);
#125=ORIENTED_EDGE('',*,*,#14,.F.);
#126=CARTESIAN_POINT('',(-0.0232233047033631,-0.161776695296637,-0.03));
#127=DIRECTION('',(-0.707106781186547,0.707106781186547,-5.551115123126E-17));
#128=VECTOR('',#127,1.);
#129=LINE('',#126,#128);
#130=EDGE_CURVE('',#7,#97,#129,.T.);
#131=ORIENTED_EDGE('',*,*,#130,.T.);
#132=EDGE_LOOP('',(#118,#124,#125,#131));
#133=FACE_OUTER_BOUND('',#132,.T.);
#134=ADVANCED_FACE('',(#133),#117,.T.);
#135=CARTESIAN_POINT('',(-0.095,0.12,-0.178492424049175));
#136=DIRECTION('',(0.500000000000001,0.499999999999998,-0.707106781186549));
#137=DIRECTION('',(0.500000000000001,0.500000000000001,0.707106781186546));
#138=AXIS2_PLACEMENT_3D('',#135,#136,#137);
#139=PLANE('',#138);
#140=ORIENTED_EDGE('',*,*,#94,.F.);
#141=CARTESIAN_POINT('',(-0.093,0.122,-0.175663996924429));
#142=DIRECTION('',(0.707106781186547,-0.707106781186547,1.110223024625E-16));
#143=VECTOR('',#142,1.);
#144=LINE('',#141,#143);
#145=EDGE_CURVE('',#81,#17,#144,.T.);
#146=ORIENTED_EDGE('',*,*,#145,.T.);
#147=ORIENTED_EDGE('',*,*,#22,.F.);
#148=ORIENTED_EDGE('',*,*,#123,.F.);
#149=EDGE_LOOP('',(#140,#146,#147,#148));
#150=FACE_OUTER_BOUND('',#149,.T.);
#151=ADVANCED_FACE('',(#150),#139,.T.);
#152=CARTESIAN_POINT('',(-0.093,0.122,-0.175663996924429));
#153=DIRECTION('',(0.499999999999996,0.5,0.70710678118655));
#154=DIRECTION('',(-0.500000000000002,-0.500000000000002,0.707106781186545));
#155=AXIS2_PLACEMENT_3D('',#152,#153,#154);
#156=PLANE('',#155);
#157=ORIENTED_EDGE('',*,*,#86,.F.);
#158=CARTESIAN_POINT('',(-0.0955,0.1195,-0.172128463018496));
#159=DIRECTION('',(0.707106781186547,-0.707106781186547,1.110223024625E-16));
#160=VECTOR('',#159,1.);
#161=LINE('',#158,#160);
#162=EDGE_CURVE('',#73,#25,#161,.T.);
#163=ORIENTED_EDGE('',*,*,#162,.T.);
#164=ORIENTED_EDGE('',*,*,#30,.F.);
#165=ORIENTED_EDGE('',*,*,#145,.F.);
#166=EDGE_LOOP('',(#157,#163,#164,#165));
#167=FACE_OUTER_BOUND('',#166,.T.);
#168=ADVANCED_FACE('',(#167),#156,.T.);
#169=CARTESIAN_POINT('',(-0.0955,0.1195,-0.172128463018496));
#170=DIRECTION('',(0.500000000000003,0.5,-0.707106781186545));
#171=DIRECTION('',(0.499999999999998,0.499999999999999,0.70710678118655));
#172=AXIS2_PLACEMENT_3D('',#169,#170,#171);
#173=PLANE('',#172);
#174=ORIENTED_EDGE('',*,*,#78,.F.);
#175=CARTESIAN_POINT('',(-0.0925,0.1225,-0.167885822331377));
#176=DIRECTION('',(0.707106781186547,-0.707106781186547,1.110223024625E-16));
#177=VECTOR('',#176,1.);
#178=LINE('',#175,#177);
#179=EDGE_CURVE('',#65,#33,#178,.T.);
#180=ORIENTED_EDGE('',*,*,#179,.T.);
#181=ORIENTED_EDGE('',*,*,#38,.F.);
#182=ORIENTED_EDGE('',*,*,#162,.F.);
#183=EDGE_LOOP('',(#174,#180,#181,#182));
#184=FACE_OUTER_BOUND('',#183,.T.);
#185=ADVANCED_FACE('',(#184),#173,.T.);
#186=CARTESIAN_POINT('',(-0.0925,0.1225,-0.167885822331377));
#187=DIRECTION('',(0.5,0.5,0.707106781186547));
#188=DIRECTION('',(-0.5,-0.5,0.707106781186547));
#189=AXIS2_PLACEMENT_3D('',#186,#187,#188);
#190=PLANE('',#189);
#191=ORIENTED_EDGE('',*,*,#70,.F.);
#192=CARTESIAN_POINT('',(-0.195,0.02,-0.0229289321881345));
#193=DIRECTION('',(0.707106781186547,-0.707106781186547,5.551115123126E-17));
#194=VECTOR('',#193,1.);
#195=LINE('',#192,#194);
#196=EDGE_CURVE('',#63,#41,#195,.T.);
#197=ORIENTED_EDGE('',*,*,#196,.T.);
#198=ORIENTED_EDGE('',*,*,#46,.F.);
#199=ORIENTED_EDGE('',*,*,#179,.F.);
#200=EDGE_LOOP('',(#191,#197,#198,#199));
#201=FACE_OUTER_BOUND('',#200,.T.);
#202=ADVANCED_FACE('',(#201),#190,.T.);
#203=CARTESIAN_POINT('',(-0.195,0.02,-0.0229289321881345));
#204=DIRECTION('',(-0.5,-0.5,0.707106781186547));
#205=DIRECTION('',(-0.5,-0.5,-0.707106781186548));
#206=AXIS2_PLACEMENT_3D('',#203,#204,#205);
#207=PLANE('',#206);
#208=ORIENTED_EDGE('',*,*,#108,.F.);
#209=ORIENTED_EDGE('',*,*,#130,.F.);
#210=ORIENTED_EDGE('',*,*,#52,.F.);
#211=ORIENTED_EDGE('',*,*,#196,.F.);
#212=EDGE_LOOP('',(#208,#209,#210,#211));
#213=FACE_OUTER_BOUND('',#212,.T.);
#214=ADVANCED_FACE('',(#213),#207,.T.);
#215=CLOSED_SHELL('',(#56,#112,#134,#151,#168,#185,#202,#214));
#216=MANIFOLD_SOLID_BREP('left wall',#215);
#217=( LENGTH_UNIT() NAMED_UNIT(*) SI_UNIT($,.METRE.) );
#218=( NAMED_UNIT(*) PLANE_ANGLE_UNIT() SI_UNIT($,.RADIAN.) );
#219=( NAMED_UNIT(*) SI_UNIT($,.STERADIAN.) SOLID_ANGLE_UNIT() );
#220=UNCERTAINTY_MEASURE_WITH_UNIT(LENGTH_MEASURE(1.000000000000E-8),#217,'distance_accuracy_value','confusion accuracy');
#221=( GEOMETRIC_REPRESENTATION_CONTEXT(3) GLOBAL_UNCERTAINTY_ASSIGNED_CONTEXT((#220)) GLOBAL_UNIT_ASSIGNED_CONTEXT((#217,#218,#219)) REPRESENTATION_CONTEXT('left wall','3D') );
#222=APPLICATION_CONTEXT('core data for automotive mechanical design processes');
#223=APPLICATION_PROTOCOL_DEFINITION('international standard','automotive_design',2010,#222);
#224=PRODUCT_CONTEXT('',#222,'mechanical');
#225=PRODUCT('left wall','left wall','',(#224));
#226=PRODUCT_RELATED_PRODUCT_CATEGORY('part','',(#225));
#227=PRODUCT_DEFINITION_FORMATION('','',#225);
#228=PRODUCT_DEFINITION_CONTEXT('part definition',#222,'design');
#229=PRODUCT_DEFINITION('design','',#227,#228);
#230=PRODUCT_DEFINITION_SHAPE('','',#229);
#231=CARTESIAN_POINT('',(0.,0.,0.));
#232=DIRECTION('',(0.,0.,1.));
#233=DIRECTION('',(1.,0.,0.));
#234=AXIS2_PLACEMENT_3D('',#231,#232,#233);
#235=ADVANCED_BREP_SHAPE_REPRESENTATION('left wall',(#234,#216),#221);
#236=SHAPE_DEFINITION_REPRESENTATION(#230,#235);
ENDSEC;
END-ISO-10303-21;
