ISO-10303-21;
HEADER;
FILE_DESCRIPTION((''),'2;1');
FILE_NAME('right wall','2024-01-01T00:00:00',(''),(''),'step-orient fixture generator','','');
FILE_SCHEMA(('AUTOMOTIVE_DESIGN { 1 0 10303 214 3 1 1 1 }'));
ENDSEC;
DATA;
#1=CARTESIAN_POINT('',(-0.130100104509765,0.353777581861988,-0.200787752639199));
#2=DIRECTION('',(0.419046818228603,0.882089542969494,-0.215215711128051));
#3=DIRECTION('',(-0.410242559852159,0.395397477129422,0.821804038177981));
#4=AXIS2_PLACEMENT_3D('',#1,#2,#3);
#5=PLANE('',#4);
#6=CARTESIAN_POINT('',(-0.130100104509765,0.353777581861988,-0.200787752639199));
#7=VERTEX_POINT('',#6);
#8=CARTESIAN_POINT('',(-0.232660744472804,0.452626951144344,0.00466325690529653));
#9=VERTEX_POINT('',#8);
#10=CARTESIAN_POINT('',(-0.130100104509765,0.353777581861988,-0.200787752639199));
#11=DIRECTION('',(-0.410242559852159,0.395397477129422,0.821804038177981));
#12=VECTOR('',#11,1.);
#13=LINE('',#10,#12);
#14=EDGE_CURVE('',#7,#9,#13,.T.);
#15=ORIENTED_EDGE('',*,*,#14,.T.);
#16=CARTESIAN_POINT('',(-0.0625606399630396,0.398849369282355,0.115451009544495));
#17=VERTEX_POINT('',#16);
#18=CARTESIAN_POINT('',(-0.232660744472804,0.452626951144344,0.00466325690529653));
#19=DIRECTION('',(0.810000497665546,-0.256083723152326,0.527560726853327));
#20=VECTOR('',#19,1.);
#21=LINE('',#18,#20);
#22=EDGE_CURVE('',#9,#17,#21,.T.);
#23=ORIENTED_EDGE('',*,*,#22,.T.);
#24=CARTESIAN_POINT('',(0.04,0.3,-0.09));
#25=VERTEX_POINT('',#24);
#26=CARTESIAN_POINT('',(-0.0625606399630396,0.398849369282355,0.115451009544495));
#27=DIRECTION('',(0.410242559852159,-0.395397477129422,-0.821804038177981));
#28=VECTOR('',#27,1.);
#29=LINE('',#26,#28);
#30=EDGE_CURVE('',#17,#25,#29,.T.);
#31=ORIENTED_EDGE('',*,*,#30,.T.);
#32=CARTESIAN_POINT('',(0.04,0.3,-0.09));
#33=DIRECTION('',(-0.810000497665546,0.256083723152326,-0.527560726853327));
#34=VECTOR('',#33,1.);
#35=LINE('',#32,#34);
#36=EDGE_CURVE('',#25,#7,#35,.T.);
#37=ORIENTED_EDGE('',*,*,#36,.T.);
#38=EDGE_LOOP('',(#15,#23,#31,#37));
#39=FACE_OUTER_BOUND('',#38,.T.);
#40=ADVANCED_FACE('',(#39),#5,.T.);
#41=CARTESIAN_POINT('',(0.0333690457026786,0.292482066970869,-0.0872593562660702));
#42=DIRECTION('',(-0.419046818228603,-0.882089542969494,0.215215711128051));
#43=DIRECTION('',(-0.410242559852159,0.395397477129422,0.821804038177981));
#44=AXIS2_PLACEMENT_3D('',#41,#42,#43);
#45=PLANE('',#44);
#46=CARTESIAN_POINT('',(0.0333690457026786,0.292482066970869,-0.0872593562660702));
#47=VERTEX_POINT('',#46);
#48=CARTESIAN_POINT('',(-0.0675506240209525,0.389749846344706,0.114904437125713));
#49=VERTEX_POINT('',#48);
#50=CARTESIAN_POINT('',(0.0333690457026786,0.292482066970869,-0.0872593562660702));
#51=DIRECTION('',(-0.410242559852159,0.395397477129422,0.821804038177981));
#52=VECTOR('',#51,1.);
#53=LINE('',#50,#52);
#54=EDGE_CURVE('',#47,#49,#53,.T.);
#55=ORIENTED_EDGE('',*,*,#54,.T.);
#56=CARTESIAN_POINT('',(-0.234410726540055,0.442503093314086,0.00622692739392777));
#57=VERTEX_POINT('',#56);
#58=CARTESIAN_POINT('',(-0.0675506240209525,0.389749846344706,0.114904437125713));
#59=DIRECTION('',(-0.810000497665546,0.256083723152326,-0.527560726853327));
#60=VECTOR('',#59,1.);
#61=LINE('',#58,#60);
#62=EDGE_CURVE('',#49,#57,#61,.T.);
#63=ORIENTED_EDGE('',*,*,#62,.T.);
#64=CARTESIAN_POINT('',(-0.133491056816424,0.345235313940248,-0.195936865997856));
#65=VERTEX_POINT('',#64);
#66=CARTESIAN_POINT('',(-0.234410726540055,0.442503093314086,0.00622692739392777));
#67=DIRECTION('',(0.410242559852159,-0.395397477129422,-0.821804038177981));
#68=VECTOR('',#67,1.);
#69=LINE('',#66,#68);
#70=EDGE_CURVE('',#57,#65,#69,.T.);
#71=ORIENTED_EDGE('',*,*,#70,.T.);
#72=CARTESIAN_POINT('',(-0.133491056816424,0.345235313940248,-0.195936865997856));
#73=DIRECTION('',(0.810000497665546,-0.256083723152326,0.527560726853327));
#74=VECTOR('',#73,1.);
#75=LINE('',#72,#74);
#76=EDGE_CURVE('',#65,#47,#75,.T.);
#77=ORIENTED_EDGE('',*,*,#76,.T.);
#78=EDGE_LOOP('',(#55,#63,#71,#77));
#79=FACE_OUTER_BOUND('',#78,.T.);
#80=ADVANCED_FACE('',(#79),#45,.T.);
#81=CARTESIAN_POINT('',(0.04,0.3,-0.09));
#82=DIRECTION('',(0.810000497665544,-0.256083723152327,0.527560726853329));
#83=DIRECTION('',(-0.41024255985216,0.395397477129422,0.82180403817798));
#84=AXIS2_PLACEMENT_3D('',#81,#82,#83);
#85=PLANE('',#84);
#86=ORIENTED_EDGE('',*,*,#30,.F.);
#87=CARTESIAN_POINT('',(-0.0659130145088685,0.3917926529386,0.11717273523352));
#88=VERTEX_POINT('',#87);
#89=CARTESIAN_POINT('',(-0.0625606399630396,0.398849369282355,0.115451009544495));
#90=DIRECTION('',(-0.419046818228604,-0.882089542969494,0.215215711128051));
#91=VECTOR('',#90,1.);
#92=LINE('',#89,#91);
#93=EDGE_CURVE('',#17,#88,#92,.T.);
#94=ORIENTED_EDGE('',*,*,#93,.T.);
#95=CARTESIAN_POINT('',(0.0366476254541712,0.292943283656244,-0.0882782743109756));
#96=VERTEX_POINT('',#95);
#97=CARTESIAN_POINT('',(-0.0659130145088685,0.3917926529386,0.11717273523352));
#98=DIRECTION('',(0.410242559852159,-0.395397477129422,-0.821804038177981));
#99=VECTOR('',#98,1.);
#100=LINE('',#97,#99);
#101=EDGE_CURVE('',#88,#96,#100,.T.);
#102=ORIENTED_EDGE('',*,*,#101,.T.);
#103=CARTESIAN_POINT('',(0.0366476254541712,0.292943283656244,-0.0882782743109756));
#104=DIRECTION('',(0.419046818228605,0.882089542969493,-0.215215711128051));
#105=VECTOR('',#104,1.);
#106=LINE('',#103,#105);
#107=EDGE_CURVE('',#96,#25,#106,.T.);
#108=ORIENTED_EDGE('',*,*,#107,.T.);
#109=EDGE_LOOP('',(#86,#94,#102,#108));
#110=FACE_OUTER_BOUND('',#109,.T.);
#111=ADVANCED_FACE('',(#110),#85,.T.);
#112=CARTESIAN_POINT('',(0.0366476254541712,0.292943283656244,-0.0882782743109756));
#113=DIRECTION('',(0.276445997859689,-0.804810034639981,0.525222256202222));
#114=DIRECTION('',(-0.410242559852159,0.395397477129423,0.82180403817798));
#115=AXIS2_PLACEMENT_3D('',#112,#113,#114);
#116=PLANE('',#115);
#117=ORIENTED_EDGE('',*,*,#101,.F.);
#118=CARTESIAN_POINT('',(-0.0659130145088685,0.3917926529386,0.11717273523352));
#119=DIRECTION('',(-0.472737146314597,-0.589707468443284,-0.654801261572201));
#120=VECTOR('',#119,1.);
#121=LINE('',#118,#120);
#122=EDGE_CURVE('',#88,#49,#121,.T.);
#123=ORIENTED_EDGE('',*,*,#122,.T.);
#124=ORIENTED_EDGE('',*,*,#54,.F.);
#125=CARTESIAN_POINT('',(0.0333690457026786,0.292482066970869,-0.0872593562660702));
#126=DIRECTION('',(0.94644445104196,0.133141788728136,-0.294136303754152));
#127=VECTOR('',#126,1.);
#128=LINE('',#125,#127);
#129=EDGE_CURVE('',#47,#96,#128,.T.);
#130=ORIENTED_EDGE('',*,*,#129,.T.);
#131=EDGE_LOOP('',(#117,#123,#124,#130));
#132=FACE_OUTER_BOUND('',#131,.T.);
#133=ADVANCED_FACE('',(#132),#116,.T.);
#134=CARTESIAN_POINT('',(-0.0625606399630396,0.398849369282355,0.115451009544495));
#135=DIRECTION('',(-0.410242559852157,0.395397477129418,0.821804038177983));
#136=DIRECTION('',(-0.810000497665547,0.256083723152328,-0.527560726853324));
#137=AXIS2_PLACEMENT_3D('',#134,#135,#136);
#138=PLANE('',#137);
#139=ORIENTED_EDGE('',*,*,#22,.F.);
#140=CARTESIAN_POINT('',(-0.236013119018633,0.445570234800588,0.00638498259432095));
#141=VERTEX_POINT('',#140);
#142=CARTESIAN_POINT('',(-0.232660744472804,0.452626951144344,0.00466325690529653));
#143=DIRECTION('',(-0.419046818228601,-0.882089542969495,0.215215711128052));
#144=VECTOR('',#143,1.);
#145=LINE('',#142,#144);
#146=EDGE_CURVE('',#9,#141,#145,.T.);
#147=ORIENTED_EDGE('',*,*,#146,.T.);
#148=CARTESIAN_POINT('',(-0.236013119018633,0.445570234800588,0.00638498259432095));
#149=DIRECTION('',(0.810000497665546,-0.256083723152326,0.527560726853327));
#150=VECTOR('',#149,1.);
#151=LINE('',#148,#150);
#152=EDGE_CURVE('',#141,#88,#151,.T.);
#153=ORIENTED_EDGE('',*,*,#152,.T.);
#154=ORIENTED_EDGE('',*,*,#93,.F.);
#155=EDGE_LOOP('',(#139,#147,#153,#154));
#156=FACE_OUTER_BOUND('',#155,.T.);
#157=ADVANCED_FACE('',(#156),#138,.T.);
#158=CARTESIAN_POINT('',(-0.0659130145088685,0.3917926529386,0.11717273523352));
#159=DIRECTION('',(-0.586396142806877,-0.344143260105188,0.73328369695868));
#160=DIRECTION('',(-0.810000497665549,0.256083723152324,-0.527560726853323));
#161=AXIS2_PLACEMENT_3D('',#158,#159,#160);
#162=PLANE('',#161);
#163=ORIENTED_EDGE('',*,*,#152,.F.);
#164=CARTESIAN_POINT('',(-0.236013119018633,0.445570234800588,0.00638498259432095));
#165=DIRECTION('',(0.462570864427266,-0.885407481437446,-0.0456266062469113));
#166=VECTOR('',#165,1.);
#167=LINE('',#164,#166);
#168=EDGE_CURVE('',#141,#57,#167,.T.);
#169=ORIENTED_EDGE('',*,*,#168,.T.);
#170=ORIENTED_EDGE('',*,*,#62,.F.);
#171=ORIENTED_EDGE('',*,*,#122,.F.);
#172=EDGE_LOOP('',(#163,#169,#170,#171));
#173=FACE_OUTER_BOUND('',#172,.T.);
#174=ADVANCED_FACE('',(#173),#162,.T.);
#175=CARTESIAN_POINT('',(-0.232660744472804,0.452626951144344,0.00466325690529653));
#176=DIRECTION('',(-0.810000497665545,0.256083723152326,-0.527560726853328));
#177=DIRECTION('',(0.410242559852159,-0.395397477129422,-0.82180403817798));
#178=AXIS2_PLACEMENT_3D('',#175,#176,#177);
#179=PLANE('',#178);
#180=ORIENTED_EDGE('',*,*,#14,.F.);
#181=CARTESIAN_POINT('',(-0.133452479055593,0.346720865518233,-0.199066026950174));
#182=VERTEX_POINT('',#181);
#183=CARTESIAN_POINT('',(-0.130100104509765,0.353777581861988,-0.200787752639199));
#184=DIRECTION('',(-0.419046818228606,-0.882089542969493,0.21521571112805));
#185=VECTOR('',#184,1.);
#186=LINE('',#183,#185);
#187=EDGE_CURVE('',#7,#182,#186,.T.);
#188=ORIENTED_EDGE('',*,*,#187,.T.);
#189=CARTESIAN_POINT('',(-0.133452479055593,0.346720865518233,-0.199066026950174));
#190=DIRECTION('',(-0.410242559852158,0.395397477129422,0.821804038177981));
#191=VECTOR('',#190,1.);
#192=LINE('',#189,#191);
#193=EDGE_CURVE('',#182,#141,#192,.T.);
#194=ORIENTED_EDGE('',*,*,#193,.T.);
#195=ORIENTED_EDGE('',*,*,#146,.F.);
#196=EDGE_LOOP('',(#180,#188,#194,#195));
#197=FACE_OUTER_BOUND('',#196,.T.);
#198=ADVANCED_FACE('',(#197),#179,.T.);
#199=CARTESIAN_POINT('',(-0.236013119018633,0.445570234800588,0.00638498259432095));
#200=DIRECTION('',(-0.869067691467876,-0.442652960254964,-0.22086127868917));
#201=DIRECTION('',(0.410242559852165,-0.395397477129418,-0.821804038177979));
#202=AXIS2_PLACEMENT_3D('',#199,#200,#201);
#203=PLANE('',#202);
#204=ORIENTED_EDGE('',*,*,#193,.F.);
#205=CARTESIAN_POINT('',(-0.133452479055593,0.346720865518233,-0.199066026950174));
#206=DIRECTION('',(-0.0111364403000771,-0.428841801722309,0.903310959079434));
#207=VECTOR('',#206,1.);
#208=LINE('',#205,#207);
#209=EDGE_CURVE('',#182,#65,#208,.T.);
#210=ORIENTED_EDGE('',*,*,#209,.T.);
#211=ORIENTED_EDGE('',*,*,#70,.F.);
#212=ORIENTED_EDGE('',*,*,#168,.F.);
#213=EDGE_LOOP('',(#204,#210,#211,#212));
#214=FACE_OUTER_BOUND('',#213,.T.);
#215=ADVANCED_FACE('',(#214),#203,.T.);
#216=CARTESIAN_POINT('',(-0.130100104509765,0.353777581861988,-0.200787752639199));
#217=DIRECTION('',(0.410242559852158,-0.395397477129421,-0.821804038177982));
#218=DIRECTION('',(0.810000497665546,-0.256083723152327,0.527560726853326));
#219=AXIS2_PLACEMENT_3D('',#216,#217,#218);
#220=PLANE('',#219);
#221=ORIENTED_EDGE('',*,*,#36,.F.);
#222=ORIENTED_EDGE('',*,*,#107,.F.);
#223=CARTESIAN_POINT('',(0.0366476254541712,0.292943283656244,-0.0882782743109756));
#224=DIRECTION('',(-0.810000497665546,0.256083723152326,-0.527560726853327));
#225=VECTOR('',#224,1.);
#226=LINE('',#223,#225);
#227=EDGE_CURVE('',#96,#182,#226,.T.);
#228=ORIENTED_EDGE('',*,*,#227,.T.);
#229=ORIENTED_EDGE('',*,*,#187,.F.);
#230=EDGE_LOOP('',(#221,#222,#228,#229));
#231=FACE_OUTER_BOUND('',#230,.T.);
#232=ADVANCED_FACE('',(#231),#220,.T.);
#233=CARTESIAN_POINT('',(-0.133452479055593,0.346720865518233,-0.199066026950174));
#234=DIRECTION('',(-0.00622555080129932,-0.903319734789741,-0.428922719445604));
#235=DIRECTION('',(0.810000497665546,-0.256083723152321,0.52756072685333));
#236=AXIS2_PLACEMENT_3D('',#233,#234,#235);
#237=PLANE('',#236);
#238=ORIENTED_EDGE('',*,*,#227,.F.);
#239=ORIENTED_EDGE('',*,*,#129,.F.);
#240=ORIENTED_EDGE('',*,*,#76,.F.);
#241=ORIENTED_EDGE('',*,*,#209,.F.);
#242=EDGE_LOOP('',(#238,#239,#240,#241));
#243=FACE_OUTER_BOUND('',#242,.T.);
#244=ADVANCED_FACE('',(#243),#237,.T.);
#245=CLOSED_SHELL('',(#40,#80,#111,#133,#157,#174,#198,#215,#232,#244));
#246=MANIFOLD_SOLID_BREP('right wall',#245);
#247=( LENGTH_UNIT() NAMED_UNIT(*) SI_UNIT($,.METRE.) );
#248=( NAMED_UNIT(*) PLANE_ANGLE_UNIT() SI_UNIT($,.RADIAN.) );
#249=( NAMED_UNIT(*) SI_UNIT($,.STERADIAN.) SOLID_ANGLE_UNIT() );
#250=UNCERTAINTY_MEASURE_WITH_UNIT(LENGTH_MEASURE(1.000000000000E-8),#247,'distance_accuracy_value','confusion accuracy');
#251=( GEOMETRIC_REPRESENTATION_CONTEXT(3) GLOBAL_UNCERTAINTY_ASSIGNED_CONTEXT((#250)) GLOBAL_UNIT_ASSIGNED_CONTEXT((#247,#248,#249)) REPRESENTATION_CONTEXT('right wall','3D') );
#252=APPLICATION_CONTEXT('core data for automotive mechanical design processes');
#253=APPLICATION_PROTOCOL_DEFINITION('international standard','automotive_design',2010,#252);
#254=PRODUCT_CONTEXT('',#252,'mechanical');
#255=PRODUCT('right wall','right wall','',(#254));
#256=PRODUCT_RELATED_PRODUCT_CATEGORY('part','',(#255));
#257=PRODUCT_DEFINITION_FORMATION('','',#255);
#258=PRODUCT_DEFINITION_CONTEXT('part definition',#252,'design');
#259=PRODUCT_DEFINITION('design','',#257,#258);
#260=PRODUCT_DEFINITION_SHAPE('','',#259);
#261=CARTESIAN_POINT('',(0.,0.,0.));
#262=DIRECTION('',(0.,0.,1.));
#263=DIRECTION('',(1.,0.,0.));
#264=AXIS2_PLACEMENT_3D('',#261,#262,#263);
#265=ADVANCED_BREP_SHAPE_REPRESENTATION('right wall',(#264,#246),#251);
#266=SHAPE_DEFINITION_REPRESENTATION(#260,#265);
ENDSEC;
END-ISO-10303-21;
