ISO-10303-21;
HEADER;
FILE_DESCRIPTION((''),'2;1');
FILE_NAME('lid front wall','2024-01-01T00:00:00',(''),(''),'step-orient fixture generator','','');
FILE_SCHEMA(('AUTOMOTIVE_DESIGN { 1 0 10303 214 3 1 1 1 }'));
ENDSEC;
DATA;
#1=CARTESIAN_POINT('',(0.314630986882928,0.0888485323760705,0.0125073808035223));
#2=DIRECTION('',(0.463098688292787,0.884853237607046,0.0507380803522311));
#3=DIRECTION('',(-0.431676827212765,0.17518522981076,0.884853237607046));
#4=AXIS2_PLACEMENT_3D('',#1,#2,#3);
#5=PLANE('',#4);
#6=CARTESIAN_POINT('',(0.314630986882928,0.0888485323760705,0.0125073808035223));
#7=VERTEX_POINT('',#6);
#8=CARTESIAN_POINT('',(0.16354409735846,0.150163362809837,0.322206013965988));
#9=VERTEX_POINT('',#8);
#10=CARTESIAN_POINT('',(0.314630986882928,0.0888485323760705,0.0125073808035223));
#11=DIRECTION('',(-0.431676827212765,0.17518522981076,0.884853237607046));
#12=VECTOR('',#11,1.);
#13=LINE('',#10,#12);
#14=EDGE_CURVE('',#7,#9,#13,.T.);
#15=ORIENTED_EDGE('',*,*,#14,.T.);
#16=CARTESIAN_POINT('',(0.194352349613973,0.132982625086768,0.340637341760041));
#17=VERTEX_POINT('',#16);
#18=CARTESIAN_POINT('',(0.16354409735846,0.150163362809837,0.322206013965988));
#19=DIRECTION('',(0.774076689837009,-0.431676827212766,0.463098688292786));
#20=VECTOR('',#19,1.);
#21=LINE('',#18,#20);
#22=EDGE_CURVE('',#9,#17,#21,.T.);
#23=ORIENTED_EDGE('',*,*,#22,.T.);
#24=CARTESIAN_POINT('',(0.345439239138441,0.0716677946530024,0.0309387085975752));
#25=VERTEX_POINT('',#24);
#26=CARTESIAN_POINT('',(0.194352349613973,0.132982625086768,0.340637341760041));
#27=DIRECTION('',(0.431676827212765,-0.17518522981076,-0.884853237607046));
#28=VECTOR('',#27,1.);
#29=LINE('',#26,#28);
#30=EDGE_CURVE('',#17,#25,#29,.T.);
#31=ORIENTED_EDGE('',*,*,#30,.T.);
#32=CARTESIAN_POINT('',(0.345439239138441,0.0716677946530024,0.0309387085975752));
#33=DIRECTION('',(-0.774076689837009,0.431676827212765,-0.463098688292786));
#34=VECTOR('',#33,1.);
#35=LINE('',#32,#34);
#36=EDGE_CURVE('',#25,#7,#35,.T.);
#37=ORIENTED_EDGE('',*,*,#36,.T.);
#38=EDGE_LOOP('',(#15,#23,#31,#37));
#39=FACE_OUTER_BOUND('',#38,.T.);
#40=ADVANCED_FACE('',(#39),#5,.T.);
#41=CARTESIAN_POINT('',(0.340808252255513,0.0628192622769319,0.0304313277940529));
#42=DIRECTION('',(-0.463098688292786,-0.884853237607046,-0.0507380803522307));
#43=DIRECTION('',(-0.431676827212765,0.17518522981076,0.884853237607046));
#44=AXIS2_PLACEMENT_3D('',#41,#42,#43);
#45=PLANE('',#44);
#46=CARTESIAN_POINT('',(0.340808252255513,0.0628192622769319,0.0304313277940529));
#47=VERTEX_POINT('',#46);
#48=CARTESIAN_POINT('',(0.189721362731045,0.124134092710698,0.340129960956519));
#49=VERTEX_POINT('',#48);
#50=CARTESIAN_POINT('',(0.340808252255513,0.0628192622769319,0.0304313277940529));
#51=DIRECTION('',(-0.431676827212765,0.17518522981076,0.884853237607046));
#52=VECTOR('',#51,1.);
#53=LINE('',#50,#52);
#54=EDGE_CURVE('',#47,#49,#53,.T.);
#55=ORIENTED_EDGE('',*,*,#54,.T.);
#56=CARTESIAN_POINT('',(0.158913110475532,0.141314830433766,0.321698633162466));
#57=VERTEX_POINT('',#56);
#58=CARTESIAN_POINT('',(0.189721362731045,0.124134092710698,0.340129960956519));
#59=DIRECTION('',(-0.774076689837009,0.431676827212766,-0.463098688292786));
#60=VECTOR('',#59,1.);
#61=LINE('',#58,#60);
#62=EDGE_CURVE('',#49,#57,#61,.T.);
#63=ORIENTED_EDGE('',*,*,#62,.T.);
#64=CARTESIAN_POINT('',(0.31,0.08,0.012));
#65=VERTEX_POINT('',#64);
#66=CARTESIAN_POINT('',(0.158913110475532,0.141314830433766,0.321698633162466));
#67=DIRECTION('',(0.431676827212765,-0.17518522981076,-0.884853237607046));
#68=VECTOR('',#67,1.);
#69=LINE('',#66,#68);
#70=EDGE_CURVE('',#57,#65,#69,.T.);
#71=ORIENTED_EDGE('',*,*,#70,.T.);
#72=CARTESIAN_POINT('',(0.31,0.08,0.012));
#73=DIRECTION('',(0.774076689837009,-0.431676827212765,0.463098688292786));
#74=VECTOR('',#73,1.);
#75=LINE('',#72,#74);
#76=EDGE_CURVE('',#65,#47,#75,.T.);
#77=ORIENTED_EDGE('',*,*,#76,.T.);
#78=EDGE_LOOP('',(#55,#63,#71,#77));
#79=FACE_OUTER_BOUND('',#78,.T.);
#80=ADVANCED_FACE('',(#79),#45,.T.);
#81=CARTESIAN_POINT('',(0.31,0.08,0.012));
#82=DIRECTION('',(-0.77407668983701,0.431676827212765,-0.463098688292786));
#83=DIRECTION('',(-0.431676827212766,0.17518522981076,0.884853237607046));
#84=AXIS2_PLACEMENT_3D('',#81,#82,#83);
#85=PLANE('',#84);
#86=ORIENTED_EDGE('',*,*,#70,.F.);
#87=CARTESIAN_POINT('',(0.158913110475532,0.141314830433766,0.321698633162466));
#88=DIRECTION('',(0.463098688292784,0.884853237607047,0.0507380803522306));
#89=VECTOR('',#88,1.);
#90=LINE('',#87,#89);
#91=EDGE_CURVE('',#57,#9,#90,.T.);
#92=ORIENTED_EDGE('',*,*,#91,.T.);
#93=ORIENTED_EDGE('',*,*,#14,.F.);
#94=CARTESIAN_POINT('',(0.314630986882928,0.0888485323760705,0.0125073808035223));
#95=DIRECTION('',(-0.463098688292784,-0.884853237607047,-0.0507380803522309));
#96=VECTOR('',#95,1.);
#97=LINE('',#94,#96);
#98=EDGE_CURVE('',#7,#65,#97,.T.);
#99=ORIENTED_EDGE('',*,*,#98,.T.);
#100=EDGE_LOOP('',(#86,#92,#93,#99));
#101=FACE_OUTER_BOUND('',#100,.T.);
#102=ADVANCED_FACE('',(#101),#85,.T.);
#103=CARTESIAN_POINT('',(0.158913110475532,0.141314830433766,0.321698633162466));
#104=DIRECTION('',(-0.431676827212766,0.175185229810761,0.884853237607046));
#105=DIRECTION('',(0.774076689837009,-0.431676827212765,0.463098688292787));
#106=AXIS2_PLACEMENT_3D('',#103,#104,#105);
#107=PLANE('',#106);
#108=ORIENTED_EDGE('',*,*,#62,.F.);
#109=CARTESIAN_POINT('',(0.189721362731045,0.124134092710698,0.340129960956519));
#110=DIRECTION('',(0.463098688292786,0.884853237607046,0.0507380803522307));
#111=VECTOR('',#110,1.);
#112=LINE('',#109,#111);
#113=EDGE_CURVE('',#49,#17,#112,.T.);
#114=ORIENTED_EDGE('',*,*,#113,.T.);
#115=ORIENTED_EDGE('',*,*,#22,.F.);
#116=ORIENTED_EDGE('',*,*,#91,.F.);
#117=EDGE_LOOP('',(#108,#114,#115,#116));
#118=FACE_OUTER_BOUND('',#117,.T.);
#119=ADVANCED_FACE('',(#118),#107,.T.);
#120=CARTESIAN_POINT('',(0.189721362731045,0.124134092710698,0.340129960956519));
#121=DIRECTION('',(0.774076689837011,-0.431676827212762,0.463098688292787));
#122=DIRECTION('',(0.431676827212766,-0.17518522981076,-0.884853237607046));
#123=AXIS2_PLACEMENT_3D('',#120,#121,#122);
#124=PLANE('',#123);
#125=ORIENTED_EDGE('',*,*,#54,.F.);
#126=CARTESIAN_POINT('',(0.340808252255513,0.0628192622769319,0.0304313277940529));
#127=DIRECTION('',(0.463098688292784,0.884853237607047,0.0507380803522309));
#128=VECTOR('',#127,1.);
#129=LINE('',#126,#128);
#130=EDGE_CURVE('',#47,#25,#129,.T.);
#131=ORIENTED_EDGE('',*,*,#130,.T.);
#132=ORIENTED_EDGE('',*,*,#30,.F.);
#133=ORIENTED_EDGE('',*,*,#113,.F.);
#134=EDGE_LOOP('',(#125,#131,#132,#133));
#135=FACE_OUTER_BOUND('',#134,.T.);
#136=ADVANCED_FACE('',(#135),#124,.T.);
#137=CARTESIAN_POINT('',(0.340808252255513,0.0628192622769319,0.0304313277940529));
#138=DIRECTION('',(0.431676827212766,-0.175185229810761,-0.884853237607046));
#139=DIRECTION('',(-0.774076689837009,0.431676827212765,-0.463098688292787));
#140=AXIS2_PLACEMENT_3D('',#137,#138,#139);
#141=PLANE('',#140);
#142=ORIENTED_EDGE('',*,*,#76,.F.);
#143=ORIENTED_EDGE('',*,*,#98,.F.);
#144=ORIENTED_EDGE('',*,*,#36,.F.);
#145=ORIENTED_EDGE('',*,*,#130,.F.);
#146=EDGE_LOOP('',(#142,#143,#144,#145));
#147=FACE_OUTER_BOUND('',#146,.T.);
#148=ADVANCED_FACE('',(#147),#141,.T.);
#149=CLOSED_SHELL('',(#40,#80,#102,#119,#136,#148));
#150=MANIFOLD_SOLID_BREP('lid front wall',#149);
#151=( LENGTH_UNIT() NAMED_UNIT(*) SI_UNIT($,.METRE.) );
#152=( NAMED_UNIT(*) PLANE_ANGLE_UNIT() SI_UNIT($,.RADIAN.) );
#153=( NAMED_UNIT(*) SI_UNIT($,.STERADIAN.) SOLID_ANGLE_UNIT() );
#154=UNCERTAINTY_MEASURE_WITH_UNIT(LENGTH_MEASURE(1.000000000000E-8),#151,'distance_accuracy_value','confusion accuracy');
#155=( GEOMETRIC_REPRESENTATION_CONTEXT(3) GLOBAL_UNCERTAINTY_ASSIGNED_CONTEXT((#154)) GLOBAL_UNIT_ASSIGNED_CONTEXT((#151,#152,#153)) REPRESENTATION_CONTEXT('lid front wall','3D') );
#156=APPLICATION_CONTEXT('core data for automotive mechanical design processes');
#157=APPLICATION_PROTOCOL_DEFINITION('international standard','automotive_design',2010,#156);
#158=PRODUCT_CONTEXT('',#156,'mechanical');
#159=PRODUCT('lid front wall','lid front wall','',(#158));
#160=PRODUCT_RELATED_PRODUCT_CATEGORY('part','',(#159));
#161=PRODUCT_DEFINITION_FORMATION('','',#159);
#162=PRODUCT_DEFINITION_CONTEXT('part definition',#156,'design');
#163=PRODUCT_DEFINITION('design','',#161,#162);
#164=PRODUCT_DEFINITION_SHAPE('','',#163);
#165=CARTESIAN_POINT('',(0.,0.,0.));
#166=DIRECTION('',(0.,0.,1.));
#167=DIRECTION('',(1.,0.,0.));
#168=AXIS2_PLACEMENT_3D('',#165,#166,#167);
#169=ADVANCED_BREP_SHAPE_REPRESENTATION('lid front wall',(#168,#150),#155);
#170=SHAPE_DEFINITION_REPRESENTATION(#164,#169);
ENDSEC;
END-ISO-10303-21;
