ISO-10303-21;
HEADER;
FILE_DESCRIPTION((''),'2;1');
FILE_NAME('lid left wall','2024-01-01T00:00:00',(''),(''),'step-orient fixture generator','','');
FILE_SCHEMA(('AUTOMOTIVE_DESIGN { 1 0 10303 214 3 1 1 1 }'));
ENDSEC;
DATA;
#1=CARTESIAN_POINT('',(0.0775973491259618,-0.183580976824663,-0.145427420311665));
#2=DIRECTION('',(0.759734912596179,-0.358097682466298,-0.542742031166504));
#3=DIRECTION('',(0.649308396817761,0.373312894032055,0.662597984430499));
#4=AXIS2_PLACEMENT_3D('',#1,#2,#3);
#5=PLANE('',#4);
#6=CARTESIAN_POINT('',(0.0775973491259618,-0.183580976824663,-0.145427420311665));
#7=VERTEX_POINT('',#6);
#8=CARTESIAN_POINT('',(0.239924448330402,-0.0902527533166491,0.02022207579596));
#9=VERTEX_POINT('',#8);
#10=CARTESIAN_POINT('',(0.0775973491259618,-0.183580976824663,-0.145427420311665));
#11=DIRECTION('',(0.649308396817761,0.373312894032055,0.6625979844305));
#12=VECTOR('',#11,1.);
#13=LINE('',#10,#12);
#14=EDGE_CURVE('',#7,#9,#13,.T.);
#15=ORIENTED_EDGE('',*,*,#14,.T.);
#16=CARTESIAN_POINT('',(0.238544892600703,-0.124313823357865,0.0407642357027478));
#17=VERTEX_POINT('',#16);
#18=CARTESIAN_POINT('',(0.239924448330402,-0.0902527533166491,0.02022207579596));
#19=DIRECTION('',(-0.0346622042637982,-0.855805779930048,0.516134671024818));
#20=VECTOR('',#19,1.);
#21=LINE('',#18,#20);
#22=EDGE_CURVE('',#9,#17,#21,.T.);
#23=ORIENTED_EDGE('',*,*,#22,.T.);
#24=CARTESIAN_POINT('',(0.0762177933962626,-0.217642046865879,-0.124885260404877));
#25=VERTEX_POINT('',#24);
#26=CARTESIAN_POINT('',(0.238544892600703,-0.124313823357865,0.0407642357027478));
#27=DIRECTION('',(-0.649308396817761,-0.373312894032055,-0.6625979844305));
#28=VECTOR('',#27,1.);
#29=LINE('',#26,#28);
#30=EDGE_CURVE('',#17,#25,#29,.T.);
#31=ORIENTED_EDGE('',*,*,#30,.T.);
#32=CARTESIAN_POINT('',(0.0762177933962626,-0.217642046865879,-0.124885260404877));
#33=DIRECTION('',(0.0346622042637985,0.855805779930048,-0.516134671024818));
#34=VECTOR('',#33,1.);
#35=LINE('',#32,#34);
#36=EDGE_CURVE('',#25,#7,#35,.T.);
#37=ORIENTED_EDGE('',*,*,#36,.T.);
#38=EDGE_LOOP('',(#15,#23,#31,#37));
#39=FACE_OUTER_BOUND('',#38,.T.);
#40=ADVANCED_FACE('',(#39),#5,.T.);
#41=CARTESIAN_POINT('',(0.0686204442703008,-0.214061070041216,-0.119457840093212));
#42=DIRECTION('',(-0.759734912596179,0.358097682466298,0.542742031166504));
#43=DIRECTION('',(0.649308396817761,0.373312894032055,0.6625979844305));
#44=AXIS2_PLACEMENT_3D('',#41,#42,#43);
#45=PLANE('',#44);
#46=CARTESIAN_POINT('',(0.0686204442703008,-0.214061070041216,-0.119457840093212));
#47=VERTEX_POINT('',#46);
#48=CARTESIAN_POINT('',(0.230947543474741,-0.120732846533202,0.0461916560144128));
#49=VERTEX_POINT('',#48);
#50=CARTESIAN_POINT('',(0.0686204442703008,-0.214061070041216,-0.119457840093212));
#51=DIRECTION('',(0.649308396817761,0.373312894032055,0.6625979844305));
#52=VECTOR('',#51,1.);
#53=LINE('',#50,#52);
#54=EDGE_CURVE('',#47,#49,#53,.T.);
#55=ORIENTED_EDGE('',*,*,#54,.T.);
#56=CARTESIAN_POINT('',(0.23232709920444,-0.0866717764919861,0.025649496107625));
#57=VERTEX_POINT('',#56);
#58=CARTESIAN_POINT('',(0.230947543474741,-0.120732846533202,0.0461916560144128));
#59=DIRECTION('',(0.0346622042637982,0.855805779930048,-0.516134671024818));
#60=VECTOR('',#59,1.);
#61=LINE('',#58,#60);
#62=EDGE_CURVE('',#49,#57,#61,.T.);
#63=ORIENTED_EDGE('',*,*,#62,.T.);
#64=CARTESIAN_POINT('',(0.07,-0.18,-0.14));
#65=VERTEX_POINT('',#64);
#66=CARTESIAN_POINT('',(0.23232709920444,-0.0866717764919861,0.025649496107625));
#67=DIRECTION('',(-0.649308396817761,-0.373312894032055,-0.6625979844305));
#68=VECTOR('',#67,1.);
#69=LINE('',#66,#68);
#70=EDGE_CURVE('',#57,#65,#69,.T.);
#71=ORIENTED_EDGE('',*,*,#70,.T.);
#72=CARTESIAN_POINT('',(0.07,-0.18,-0.14));
#73=DIRECTION('',(-0.0346622042637985,-0.855805779930048,0.516134671024818));
#74=VECTOR('',#73,1.);
#75=LINE('',#72,#74);
#76=EDGE_CURVE('',#65,#47,#75,.T.);
#77=ORIENTED_EDGE('',*,*,#76,.T.);
#78=EDGE_LOOP('',(#55,#63,#71,#77));
#79=FACE_OUTER_BOUND('',#78,.T.);
#80=ADVANCED_FACE('',(#79),#45,.T.);
#81=CARTESIAN_POINT('',(0.07,-0.18,-0.14));
#82=DIRECTION('',(0.0346622042637994,0.85580577993005,-0.516134671024815));
#83=DIRECTION('',(0.649308396817761,0.373312894032053,0.662597984430501));
#84=AXIS2_PLACEMENT_3D('',#81,#82,#83);
#85=PLANE('',#84);
#86=ORIENTED_EDGE('',*,*,#70,.F.);
#87=CARTESIAN_POINT('',(0.23232709920444,-0.0866717764919861,0.025649496107625));
#88=DIRECTION('',(0.75973491259618,-0.358097682466298,-0.542742031166503));
#89=VECTOR('',#88,1.);
#90=LINE('',#87,#89);
#91=EDGE_CURVE('',#57,#9,#90,.T.);
#92=ORIENTED_EDGE('',*,*,#91,.T.);
#93=ORIENTED_EDGE('',*,*,#14,.F.);
#94=CARTESIAN_POINT('',(0.0775973491259618,-0.183580976824663,-0.145427420311665));
#95=DIRECTION('',(-0.75973491259618,0.358097682466299,0.542742031166502));
#96=VECTOR('',#95,1.);
#97=LINE('',#94,#96);
#98=EDGE_CURVE('',#7,#65,#97,.T.);
#99=ORIENTED_EDGE('',*,*,#98,.T.);
#100=EDGE_LOOP('',(#86,#92,#93,#99));
#101=FACE_OUTER_BOUND('',#100,.T.);
#102=ADVANCED_FACE('',(#101),#85,.T.);
#103=CARTESIAN_POINT('',(0.23232709920444,-0.0866717764919861,0.025649496107625));
#104=DIRECTION('',(0.64930839681776,0.373312894032056,0.662597984430501));
#105=DIRECTION('',(-0.0346622042637986,-0.855805779930048,0.516134671024817));
#106=AXIS2_PLACEMENT_3D('',#103,#104,#105);
#107=PLANE('',#106);
#108=ORIENTED_EDGE('',*,*,#62,.F.);
#109=CARTESIAN_POINT('',(0.230947543474741,-0.120732846533202,0.0461916560144128));
#110=DIRECTION('',(0.75973491259618,-0.358097682466298,-0.542742031166503));
#111=VECTOR('',#110,1.);
#112=LINE('',#109,#111);
#113=EDGE_CURVE('',#49,#17,#112,.T.);
#114=ORIENTED_EDGE('',*,*,#113,.T.);
#115=ORIENTED_EDGE('',*,*,#22,.F.);
#116=ORIENTED_EDGE('',*,*,#91,.F.);
#117=EDGE_LOOP('',(#108,#114,#115,#116));
#118=FACE_OUTER_BOUND('',#117,.T.);
#119=ADVANCED_FACE('',(#118),#107,.T.);
#120=CARTESIAN_POINT('',(0.230947543474741,-0.120732846533202,0.0461916560144128));
#121=DIRECTION('',(-0.0346622042637986,-0.855805779930048,0.516134671024818));
#122=DIRECTION('',(-0.649308396817761,-0.373312894032055,-0.6625979844305));
#123=AXIS2_PLACEMENT_3D('',#120,#121,#122);
#124=PLANE('',#123);
#125=ORIENTED_EDGE('',*,*,#54,.F.);
#126=CARTESIAN_POINT('',(0.0686204442703008,-0.214061070041216,-0.119457840093212));
#127=DIRECTION('',(0.75973491259618,-0.358097682466296,-0.542742031166503));
#128=VECTOR('',#127,1.);
#129=LINE('',#126,#128);
#130=EDGE_CURVE('',#47,#25,#129,.T.);
#131=ORIENTED_EDGE('',*,*,#130,.T.);
#132=ORIENTED_EDGE('',*,*,#30,.F.);
#133=ORIENTED_EDGE('',*,*,#113,.F.);
#134=EDGE_LOOP('',(#125,#131,#132,#133));
#135=FACE_OUTER_BOUND('',#134,.T.);
#136=ADVANCED_FACE('',(#135),#124,.T.);
#137=CARTESIAN_POINT('',(0.0686204442703008,-0.214061070041216,-0.119457840093212));
#138=DIRECTION('',(-0.649308396817758,-0.373312894032057,-0.662597984430502));
#139=DIRECTION('',(0.0346622042637986,0.855805779930048,-0.516134671024818));
#140=AXIS2_PLACEMENT_3D('',#137,#138,#139);
#141=PLANE('',#140);
#142=ORIENTED_EDGE('',*,*,#76,.F.);
#143=ORIENTED_EDGE('',*,*,#98,.F.);
#144=ORIENTED_EDGE('',*,*,#36,.F.);
#145=ORIENTED_EDGE('',*,*,#130,.F.);
#146=EDGE_LOOP('',(#142,#143,#144,#145));
#147=FACE_OUTER_BOUND('',#146,.T.);
#148=ADVANCED_FACE('',(#147),#141,.T.);
#149=CLOSED_SHELL('',(#40,#80,#102,#119,#136,#148));
#150=MANIFOLD_SOLID_BREP('lid left wall',#149);
#151=( LENGTH_UNIT() NAMED_UNIT(*) SI_UNIT($,.METRE.) );
#152=( NAMED_UNIT(*) PLANE_ANGLE_UNIT() SI_UNIT($,.RADIAN.) );
#153=( NAMED_UNIT(*) SI_UNIT($,.STERADIAN.) SOLID_ANGLE_UNIT() );
#154=UNCERTAINTY_MEASURE_WITH_UNIT(LENGTH_MEASURE(1.000000000000E-8),#151,'distance_accuracy_value','confusion accuracy');
#155=( GEOMETRIC_REPRESENTATION_CONTEXT(3) GLOBAL_UNCERTAINTY_ASSIGNED_CONTEXT((#154)) GLOBAL_UNIT_ASSIGNED_CONTEXT((#151,#152,#153)) REPRESENTATION_CONTEXT('lid left wall','3D') );
#156=APPLICATION_CONTEXT('core data for automotive mechanical design processes');
#157=APPLICATION_PROTOCOL_DEFINITION('international standard','automotive_design',2010,#156);
#158=PRODUCT_CONTEXT('',#156,'mechanical');
#159=PRODUCT('lid left wall','lid left wall','',(#158));
#160=PRODUCT_RELATED_PRODUCT_CATEGORY('part','',(#159));
#161=PRODUCT_DEFINITION_FORMATION('','',#159);
#162=PRODUCT_DEFINITION_CONTEXT('part definition',#156,'design');
#163=PRODUCT_DEFINITION('design','',#161,#162);
#164=PRODUCT_DEFINITION_SHAPE('','',#163);
#165=CARTESIAN_POINT('',(0.,0.,0.));
#166=DIRECTION('',(0.,0.,1.));
#167=DIRECTION('',(1.,0.,0.));
#168=AXIS2_PLACEMENT_3D('',#165,#166,#167);
#169=ADVANCED_BREP_SHAPE_REPRESENTATION('lid left wall',(#168,#150),#155);
#170=SHAPE_DEFINITION_REPRESENTATION(#164,#169);
ENDSEC;
END-ISO-10303-21;
